<?xml version="1.0" encoding="utf-8"?>
<!-- Generator: Adobe Illustrator 15.1.0, SVG Export Plug-In . SVG Version: 6.00 Build 0)  -->
<!DOCTYPE svg PUBLIC "-//W3C//DTD SVG 1.1//EN" "http://www.w3.org/Graphics/SVG/1.1/DTD/svg11.dtd">
<svg version="1.1" id="Layer_1" xmlns="http://www.w3.org/2000/svg" xmlns:xlink="http://www.w3.org/1999/xlink" x="0px" y="0px"
	 width="200px" height="57.2px" viewBox="0 0 200 57.2" enable-background="new 0 0 200 57.2" xml:space="preserve">
<g>
	<g>
		<path fill="#FFFFFF" d="M27.2,40.3c0.1,0.1,0.3,0.3,0.5,0.3l0,0H28l0,0c0.2,0,0.5,0,0.7,0l0,0h0.3l0,0c0.2,0,0.4-0.1,0.5-0.3l0,0
			l5.1-13l0,0c0.3-0.7,0.6-0.6,0.6,0.1l0,0v8l0,0c0,0.8-0.4,1.4-0.9,1.4c-0.5,0-0.9,0.6-0.9,1.4l0,0v3.3H42v-2.4l0-0.9l0,0
			c0-0.8-0.4-1.4-0.9-1.4c-0.4,0-0.8-0.4-0.9-0.9l0,0V22.6c0-0.8,0.4-1.4,0.9-1.4c0.5,0,0.9-0.6,0.9-1.4l0,0v-3.7h-7.9l-5.9,14.2
			l-5.9-14.2h-8v3.7l0,0c0,0.8,0.4,1.4,0.9,1.4c0.5,0,0.9,0.6,0.9,1.4l0,0v12.8l0,0c0,0.8-0.4,1.4-0.9,1.4c-0.5,0-0.9,0.6-0.9,1.4
			l0,0l0,3.3H23v-3.3l0,0c0-0.8-0.4-1.4-0.9-1.4c-0.5,0-0.9-0.6-0.9-1.4l0,0v-8l0,0c0-0.8,0.3-0.8,0.6-0.1l0,0L27.2,40.3L27.2,40.3z
			"/>
		<path fill="#FFFFFF" d="M28.3,0C44,0,56.9,12.9,56.9,28.6c0,15.8-12.9,28.6-28.6,28.6c-15.8,0-28.6-12.9-28.6-28.6
			C-0.4,12.9,12.5,0,28.3,0L28.3,0z M28.3,5.7C15.6,5.7,5.3,16,5.3,28.6c0,12.6,10.3,22.9,22.9,22.9c12.6,0,22.9-10.3,22.9-22.9
			C51.2,16,40.9,5.7,28.3,5.7z"/>
	</g>
	<g>
		<polygon fill="#FFFFFF" points="71.5,38 71.5,19.2 77.1,19.2 80.5,32 83.9,19.2 89.6,19.2 89.6,38 86.1,38 86.1,23.2 82.4,38 
			78.7,38 75,23.2 75,38 		"/>
		<path fill="#FFFFFF" d="M96,28.5l-3.3-0.6c0.4-1.3,1-2.3,1.9-2.9c0.9-0.6,2.2-0.9,4-0.9c1.6,0,2.8,0.2,3.6,0.6
			c0.8,0.4,1.3,0.9,1.7,1.5c0.3,0.5,0.5,1.7,0.5,3.2l0,4.2c0,1.2,0,2.1,0.2,2.6c0.1,0.6,0.4,1.2,0.7,1.8h-3.6
			c-0.1-0.2-0.2-0.6-0.4-1.1c0-0.2-0.1-0.4-0.1-0.4c-0.6,0.6-1.3,1.1-2,1.3c-0.7,0.3-1.5,0.5-2.2,0.5c-1.4,0-2.5-0.4-3.3-1.1
			c-0.8-0.8-1.2-1.7-1.2-2.9c0-0.7,0.2-1.5,0.6-2c0.3-0.6,0.9-1.1,1.5-1.4c0.7-0.3,1.6-0.6,2.9-0.8c1.7-0.3,2.8-0.6,3.5-0.9v-0.4
			c0-0.7-0.2-1.2-0.5-1.5c-0.4-0.3-1-0.4-1.9-0.4c-0.7,0-1.1,0.1-1.5,0.4C96.5,27.4,96.2,27.9,96,28.5L96,28.5z M100.8,31.4
			c-0.5,0.2-1.2,0.3-2.2,0.6c-1,0.2-1.7,0.4-2,0.6c-0.4,0.3-0.7,0.7-0.7,1.3c0,0.5,0.2,0.9,0.5,1.3c0.4,0.4,0.9,0.6,1.4,0.6
			c0.7,0,1.3-0.2,1.9-0.6c0.4-0.3,0.7-0.7,0.8-1.2c0.1-0.3,0.2-0.9,0.2-1.8V31.4z"/>
		<path fill="#FFFFFF" d="M119.7,28.4l-3.5,0.7c-0.1-0.7-0.4-1.3-0.8-1.6c-0.4-0.4-0.9-0.6-1.6-0.6c-0.9,0-1.6,0.3-2.2,0.9
			c-0.5,0.6-0.8,1.7-0.8,3.1c0,1.6,0.3,2.8,0.8,3.4c0.6,0.7,1.3,1,2.2,1c0.7,0,1.2-0.2,1.7-0.6c0.4-0.4,0.7-1.1,0.9-2l3.5,0.6
			c-0.4,1.6-1.1,2.8-2.1,3.7c-1,0.8-2.4,1.3-4.2,1.3c-2,0-3.6-0.6-4.8-1.9c-1.2-1.3-1.8-3-1.8-5.2c0-2.2,0.6-4,1.8-5.2
			c1.2-1.3,2.8-1.9,4.8-1.9c1.6,0,3,0.4,4,1.1C118.6,25.9,119.3,26.9,119.7,28.4z"/>
		<polygon fill="#FFFFFF" points="122.3,38 122.3,19.2 126,19.2 126,29.2 130.2,24.4 134.6,24.4 129.9,29.3 134.9,38 131,38 
			127.6,31.9 126,33.6 126,38 		"/>
		<path fill="#FFFFFF" d="M144.9,33.6l3.6,0.6c-0.5,1.3-1.2,2.3-2.2,3c-1,0.7-2.2,1.1-3.7,1.1c-2.4,0-4.1-0.8-5.2-2.3
			c-0.9-1.3-1.4-2.8-1.4-4.7c0-2.3,0.6-4,1.8-5.3c1.2-1.3,2.7-1.9,4.5-1.9c2,0,3.6,0.7,4.8,2c1.1,1.3,1.7,3.4,1.6,6.1h-9
			c0,1.1,0.3,1.9,0.9,2.5c0.5,0.6,1.3,0.9,2.1,0.9c0.6,0,1-0.2,1.4-0.4C144.4,34.8,144.7,34.3,144.9,33.6L144.9,33.6z M145.1,30
			c0-1-0.3-1.8-0.8-2.4c-0.5-0.5-1.1-0.8-1.8-0.8c-0.8,0-1.5,0.3-2,0.9c-0.5,0.6-0.7,1.3-0.7,2.3H145.1z"/>
		<path fill="#FFFFFF" d="M164,38h-3.6v-7c0-1.5-0.1-2.4-0.2-2.8c-0.2-0.4-0.4-0.8-0.7-1c-0.4-0.2-0.7-0.4-1.3-0.4
			c-0.6,0-1.2,0.2-1.7,0.5c-0.5,0.4-0.9,0.8-1,1.4c-0.2,0.5-0.3,1.6-0.3,3.1V38h-3.6V24.4h3.3v2c1.2-1.5,2.7-2.3,4.5-2.3
			c0.8,0,1.5,0.2,2.2,0.4c0.7,0.3,1.2,0.7,1.5,1.1c0.4,0.4,0.6,0.9,0.7,1.5c0.2,0.6,0.2,1.4,0.2,2.4V38z"/>
		<path fill="#FFFFFF" d="M166.2,38v-2.8l5.1-5.8c0.9-1,1.5-1.6,1.8-2c-0.4,0-0.9,0-1.6,0l-4.8,0v-3h11.2v2.6l-5.2,6l-1.8,2
			c1-0.1,1.6-0.1,1.8-0.1h5.5V38H166.2z"/>
		<path fill="#FFFFFF" d="M180.7,22.5v-3.3h3.6v3.3H180.7L180.7,22.5z M180.7,38V24.4h3.6V38H180.7z"/>
		<path fill="#FFFFFF" d="M195.9,33.6l3.6,0.6c-0.5,1.3-1.2,2.3-2.2,3c-1,0.7-2.2,1.1-3.7,1.1c-2.4,0-4.1-0.8-5.2-2.3
			c-0.9-1.3-1.3-2.8-1.3-4.7c0-2.3,0.6-4,1.8-5.3c1.2-1.3,2.7-1.9,4.4-1.9c2,0,3.6,0.7,4.8,2c1.2,1.3,1.7,3.4,1.7,6.1h-9
			c0,1.1,0.3,1.9,0.9,2.5c0.6,0.6,1.2,0.9,2,0.9c0.6,0,1.1-0.2,1.5-0.4C195.4,34.8,195.7,34.3,195.9,33.6L195.9,33.6z M196.1,30
			c0-1-0.3-1.8-0.8-2.4c-0.5-0.5-1.1-0.8-1.8-0.8c-0.8,0-1.5,0.3-2,0.9c-0.5,0.6-0.7,1.3-0.7,2.3H196.1z"/>
	</g>
</g>
</svg>
