<?xml version="1.0" encoding="UTF-8" standalone="no"?>
<!-- Created with Inkscape (http://www.inkscape.org/) -->
<svg id="svg11283" xmlns:rdf="http://www.w3.org/1999/02/22-rdf-syntax-ns#" xmlns="http://www.w3.org/2000/svg" height="180.41" width="208.25" version="1.1" xmlns:cc="http://creativecommons.org/ns#" xmlns:dc="http://purl.org/dc/elements/1.1/" viewBox="0 0 208.25101 180.4057">
 <metadata id="metadata11288">
  <rdf:RDF>
   <cc:Work rdf:about="">
    <dc:format>image/svg+xml</dc:format>
    <dc:type rdf:resource="http://purl.org/dc/dcmitype/StillImage"/>
    <dc:title/>
   </cc:Work>
  </rdf:RDF>
 </metadata>
 <g id="layer1" transform="translate(-542.68 -382.13)">
  <path id="path4268-3-7-3" style="stroke-linejoin:round;fill-rule:evenodd;stroke:#fff;stroke-linecap:round;stroke-width:0.4;fill:#808080" d="m577.53 482.33 34.641-20-34.641 60z"/>
  <path id="path4264-7-5-0" style="stroke-linejoin:round;fill-rule:evenodd;stroke:#fff;stroke-linecap:round;stroke-width:0.4;fill:#464646" d="m646.81 482.33v40l-34.641-20-0.0001-40z"/>
  <path id="path4270-4-3-7" style="stroke-linejoin:round;fill-rule:evenodd;stroke:#fff;stroke-linecap:round;stroke-width:0.4;fill:#808080" d="m681.45 462.33-34.641 60v-40z"/>
  <path id="path4272-5-5-8" style="stroke-linejoin:round;fill-rule:evenodd;stroke:#fff;stroke-linecap:round;stroke-width:0.4;fill:#686868" d="m681.45 462.33v40l-34.641 20z"/>
  <path id="path4274-2-6-6" style="stroke-linejoin:round;fill-rule:evenodd;stroke:#fff;stroke-linecap:round;stroke-width:0.4;fill:#464646" d="m681.45 462.33 34.641 20v40l-34.641-20z"/>
  <path id="path4256-5-2-8" style="stroke-linejoin:round;fill-rule:evenodd;stroke:#fff;stroke-linecap:round;stroke-width:0.4;fill:#d8d8d8" d="m612.17 422.33-34.641 20 34.641 20 34.641-20z"/>
  <path id="path4254-4-9-8" style="stroke-linejoin:round;fill-rule:evenodd;stroke:#fff;stroke-linecap:round;stroke-width:0.4;fill:#d8d8d8" d="m646.81 442.33-34.641 20 34.641 20 34.641-20z"/>
  <path id="path4260-7-1-4" style="stroke-linejoin:round;fill-rule:evenodd;stroke:#fff;stroke-linecap:round;stroke-width:0.4;fill:#d8d8d8" d="m646.81 442.33 34.641-20 34.641 20-34.641 20z"/>
  <path id="path4258-4-2-3" style="stroke-linejoin:round;fill-rule:evenodd;stroke:#fff;stroke-linecap:round;stroke-width:0.4;fill:#474747" d="m577.53 442.33 34.641 20-34.641 20z"/>
  <path id="path4262-4-7-1" style="stroke-linejoin:round;fill-rule:evenodd;stroke:#fff;stroke-linecap:round;stroke-width:0.4;fill:#ababab" d="m716.09 442.33v40l-34.641-20z"/>
  <path id="path4266-3-0-4" style="stroke-linejoin:round;fill-rule:evenodd;stroke:#fff;stroke-linecap:round;stroke-width:0.4;fill:#686868" d="m612.17 462.33 0.0001 40-34.641 20z"/>
  <path id="path4276-0-9-9" style="stroke-linejoin:round;stroke:#fff;stroke-linecap:round;stroke-width:0.4;fill:none" d="m646.81 442.33v-40"/>
  <path id="path4278-7-3-2" style="stroke-linejoin:round;stroke:#fff;stroke-linecap:round;stroke-width:0.4;fill:none" d="m612.17 422.33 34.641-20"/>
  <path id="path4280-8-6-0" style="stroke-linejoin:round;stroke:#fff;stroke-linecap:round;stroke-width:0.4;fill:none" d="m681.45 422.33-34.641-20"/>
  <path id="path4282-6-0-6" style="stroke-linejoin:round;stroke:#fff;stroke-linecap:round;stroke-width:0.4;fill:none" d="m612.17 382.33v40l-34.641-20"/>
  <path id="path4284-8-6-8" style="stroke-linejoin:round;stroke:#fff;stroke-linecap:round;stroke-width:0.4;fill:none" d="m577.53 442.33v-40"/>
  <path id="path4286-8-2-9" style="stroke-linejoin:round;stroke:#fff;stroke-linecap:round;stroke-width:0.4;fill:none" d="m542.89 422.33 34.641 20-34.641 20"/>
  <path id="path4288-4-6-2" style="stroke-linejoin:round;stroke:#fff;stroke-linecap:round;stroke-width:0.4;fill:none" d="m542.89 462.33 34.641 20-34.641 20"/>
  <path id="path4290-3-1-6" style="stroke-linejoin:round;stroke:#fff;stroke-linecap:round;stroke-width:0.4;fill:none" d="m577.53 522.33v40"/>
  <path id="path4292-1-8-6" style="stroke-linejoin:round;stroke:#fff;stroke-linecap:round;stroke-width:0.4;fill:none" d="m577.53 522.33-34.641 20"/>
  <path id="path4294-4-7-4" style="stroke-linejoin:round;stroke:#fff;stroke-linecap:round;stroke-width:0.4;fill:none" d="m612.17 502.33v40"/>
  <path id="path4296-9-9-9" style="stroke-linejoin:round;stroke:#fff;stroke-linecap:round;stroke-width:0.4;fill:none" d="m646.81 522.33-34.641 20"/>
  <path id="path4298-2-2-5" style="stroke-linejoin:round;stroke:#fff;stroke-linecap:round;stroke-width:0.4;fill:none" d="m646.81 562.33v-40l34.641 20"/>
  <path id="path4300-0-0-0" style="stroke-linejoin:round;stroke:#fff;stroke-linecap:round;stroke-width:0.4;fill:none" d="m681.45 502.33v40"/>
  <path id="path4302-6-2-4" style="stroke-linejoin:round;stroke:#fff;stroke-linecap:round;stroke-width:0.4;fill:none" d="m716.09 522.33v40"/>
  <path id="path4304-8-3-8" style="stroke-linejoin:round;stroke:#fff;stroke-linecap:round;stroke-width:0.4;fill:none" d="m750.73 542.33-34.641-20"/>
  <path id="path4306-9-7-7" style="stroke-linejoin:round;stroke:#fff;stroke-linecap:round;stroke-width:0.4;fill:none" d="m750.73 502.33-34.641-20"/>
  <path id="path4308-2-5-1" style="stroke-linejoin:round;stroke:#fff;stroke-linecap:round;stroke-width:0.4;fill:none" d="m750.73 462.33-34.641 20"/>
  <path id="path4310-6-9-7" style="stroke-linejoin:round;stroke:#fff;stroke-linecap:round;stroke-width:0.4;fill:none" d="m681.45 422.33v-40"/>
  <path id="path4312-6-2-2" style="stroke-linejoin:round;stroke:#fff;stroke-linecap:round;stroke-width:0.4;fill:none" d="m716.09 402.33-34.641 20"/>
  <path id="path4314-4-2-7" style="stroke-linejoin:round;stroke:#fff;stroke-linecap:round;stroke-width:0.4;fill:none" d="m716.09 442.33v-40"/>
  <path id="path4316-9-8-2" style="stroke-linejoin:round;stroke:#fff;stroke-linecap:round;stroke-width:0.4;fill:none" d="m750.73 422.33-34.641 20"/>
  <path id="path4318-5-9-2" style="stroke-linejoin:round;stroke:#fff;stroke-linecap:round;stroke-width:0.4;fill:none" d="m750.73 462.33-34.641-20"/>
 </g>
</svg>
